# xmcd
#
# Track frame offsets:
#	150
#	22848
#	25041
#	44597
#	68012
#	102923
#	123908
#	129265
#	158899
#	196559
#	200311
#	222425
#	246401
#
# Disc length: 3583 seconds
#
# Revision: 0
# Processed by: cddbd v1.4PL0 Copyright (c) Steve Scherf et al.
# Submitted via: EasyCDDAExtractor 5.0.5.1
#
DISCID=a80dfd0d
DTITLE=The Fujii - We Pray the Brooze
DYEAR=2003
DGENRE=Blues
TTITLE0=Sundown
TTITLE1=Tom
TTITLE2=After the Flowting
TTITLE3=Como
TTITLE4=Delta
TTITLE5=Innerself
TTITLE6=Aero
TTITLE7=Listen the Sound of the Creek
TTITLE8=Under the Dry
TTITLE9=Black Sheep
TTITLE10=Searching
TTITLE11=Tonbo
TTITLE12=Paper Balloon
EXTD=
EXTT0=
EXTT1=
EXTT2=
EXTT3=
EXTT4=
EXTT5=
EXTT6=
EXTT7=
EXTT8=
EXTT9=
EXTT10=
EXTT11=
EXTT12=
PLAYORDER=
